# xmcd CD database file generated by MAGIX-FreeDB- v3.0beta1
#
# Track frame offsets:
#	150
#	19255
#	31983
#	52363
#	70188
#	83373
#	97533
#	111478
#	126918
#	139778
#	158313
#	171150
#	179675
#	194613
#	208838
#
# Disc length: 2951
#
# Revision: 2
# Processed by: cddbd v1.5.2PL0 Copyright (c) Steve Scherf et al.
# Submitted via: MAGIX-FreeDB- v3.0beta1
#
DISCID=d00b850f
DTITLE=Bertram Schattel - Bertram Schattel - National Hymnen
DYEAR=1993
DGENRE=Instrumental
TTITLE0=National Hymnen - Germany
TTITLE1=National Hymnen - Italien
TTITLE2=National Hymnen - Frankreich
TTITLE3=National Hymnen - England
TTITLE4=National Hymnen - Dänemark
TTITLE5=National Hymnen - Finnland
TTITLE6=National Hymnen - Niederlande
TTITLE7=National Hymnen - Türkei
TTITLE8=National Hymnen - Spanien
TTITLE9=National Hymnen - Österreich
TTITLE10=National Hymnen - USA
TTITLE11=National Hymnen - China
TTITLE12=National Hymnen - Griechenland
TTITLE13=National Hymnen - Norwegen
TTITLE14=National Hymnen - Schweiz
EXTD=
EXTT0=
EXTT1=
EXTT2=
EXTT3=
EXTT4=
EXTT5=
EXTT6=
EXTT7=
EXTT8=
EXTT9=
EXTT10=
EXTT11=
EXTT12=
EXTT13=
EXTT14=
PLAYORDER=
